# Aspose.3D Wavefront OBJ Exporter
# Copyright 2004-2022 Aspose Pty Ltd.
# File created: 12/07/2022 12:16:10


#
# object obj_63163923
#

v -2.79972004890441888 -2.3663930892944336 7.69999980926513672
v 2.14312911033630372 -2.3663930892944336 7.69999980926513672
v 2.14312911033630372 4.0152130126953125 7.69999980926513672
v -2.79972004890441888 4.0152130126953125 7.69999980926513672
v -2.79972004890441888 -2.3663930892944336 7.5
v -2.79972004890441888 4.0152130126953125 7.5
v 2.14312911033630372 4.0152130126953125 7.5
v 2.14312911033630372 -2.3663930892944336 7.5
v -2.79972004890441888 -2.3663930892944336 7.5
v 2.14312911033630372 -2.3663930892944336 7.5
v 2.14312911033630372 -2.3663930892944336 7.69999980926513672
v -2.79972004890441888 -2.3663930892944336 7.69999980926513672
v 2.14312911033630372 -2.3663930892944336 7.5
v 2.14312911033630372 4.0152130126953125 7.5
v 2.14312911033630372 4.0152130126953125 7.69999980926513672
v 2.14312911033630372 -2.3663930892944336 7.69999980926513672
v 2.14312911033630372 4.0152130126953125 7.5
v -2.79972004890441888 4.0152130126953125 7.5
v -2.79972004890441888 4.0152130126953125 7.69999980926513672
v 2.14312911033630372 4.0152130126953125 7.69999980926513672
v -2.79972004890441888 4.0152130126953125 7.5
v -2.79972004890441888 -2.3663930892944336 7.5
v -2.79972004890441888 -2.3663930892944336 7.69999980926513672
v -2.79972004890441888 4.0152130126953125 7.69999980926513672
# 24 vertices

vn 0 0 1
vn 0 0 1
vn 0 0 1
vn 0 0 1
vn 0 0 -1
vn 0 0 -1
vn 0 0 -1
vn 0 0 -1
vn 0 -1 0
vn 0 -1 0
vn 0 -1 0
vn 0 -1 0
vn 1 0 0
vn 1 0 0
vn 1 0 0
vn 1 0 0
vn 0 1 0
vn 0 1 0
vn 0 1 0
vn 0 1 0
vn -1 0 0
vn -1 0 0
vn -1 0 0
vn -1 0 0
# 24 vertex normals

vt 0.5194439888000488 -0.01944500021636486 0
vt 1 -0.01944500021636486 0
vt 1 -0.6398800015449524 0
vt 0.5194439888000488 -0.6398800015449524 0
vt 0.5 -0.01944500021636486 0
vt 0.5 -0.6398800015449524 0
vt 0.01944399997591972 -0.6398800015449524 0
vt 0.01944399997591972 -0.01944500021636486 0
vt 0.5 -0.01944500021636486 0
vt 0.01944399997591972 -0.01944500021636486 0
vt 0.01944500021636486 -0 0
vt 0.5 -0 0
vt 0.01944399997591972 -0.01944500021636486 0
vt 0.01944399997591972 -0.6398800015449524 0
vt 0 -0.6398800015449524 0
vt 0 -0.01944500021636486 0
vt 0.01944399997591972 -0.6398800015449524 0
vt 0.5 -0.6398800015449524 0
vt 0.5 -0.6593239903450012 0
vt 0.01944399997591972 -0.6593239903450012 0
vt 0.5 -0.6398800015449524 0
vt 0.5 -0.01944500021636486 0
vt 0.5194439888000488 -0.01944500021636486 0
vt 0.5194439888000488 -0.6398800015449524 0
# 24 texture coords

g obj_63163923
s 1
f 4/4/4 1/1/1 2/2/2
f 2/2/2 3/3/3 4/4/4
f 8/8/8 5/5/5 6/6/6
f 6/6/6 7/7/7 8/8/8
f 12/12/12 9/9/9 10/10/10
f 10/10/10 11/11/11 12/12/12
f 16/16/16 13/13/13 14/14/14
f 14/14/14 15/15/15 16/16/16
f 20/20/20 17/17/17 18/18/18
f 18/18/18 19/19/19 20/20/20
f 24/24/24 21/21/21 22/22/22
f 22/22/22 23/23/23 24/24/24
#12 polygons

